<svg width="243" height="243" viewBox="0 0 243 243" fill="none" xmlns="http://www.w3.org/2000/svg">
<path d="M219.186 204.903L183.105 168.812C182.336 168.091 181.405 167.563 180.391 167.272C179.377 166.982 178.309 166.936 177.273 167.14L163.374 153.236C170.645 143.718 174.422 131.989 174.071 120.017C173.721 108.044 169.265 96.5566 161.449 87.4801V34.0201C161.449 30.7977 160.169 27.7073 157.891 25.4288C155.612 23.1502 152.522 21.8701 149.299 21.8701H34.0201C30.7977 21.8701 27.7073 23.1502 25.4288 25.4288C23.1502 27.7073 21.8701 30.7977 21.8701 34.0201V208.98C21.8701 212.202 23.1502 215.293 25.4288 217.571C27.7073 219.85 30.7977 221.13 34.0201 221.13H149.299C152.522 221.13 155.612 219.85 157.891 217.571C160.169 215.293 161.449 212.202 161.449 208.98V171.587L167.097 177.235C166.773 178.272 166.763 179.383 167.07 180.426C167.376 181.469 167.984 182.398 168.817 183.096L204.898 219.186C206.147 220.433 207.84 221.133 209.605 221.133C211.37 221.133 213.062 220.433 214.312 219.186L219.172 214.326C220.419 213.078 221.12 211.386 221.12 209.622C221.12 207.857 220.419 206.165 219.172 204.917L219.186 204.903Z" fill="#231F20"/>
<path d="M156.589 208.98C156.589 210.913 155.821 212.768 154.454 214.135C153.087 215.502 151.233 216.27 149.299 216.27H34.0202C32.0868 216.27 30.2326 215.502 28.8654 214.135C27.4983 212.768 26.7302 210.913 26.7302 208.98V34.02C26.7302 32.0866 27.4983 30.2323 28.8654 28.8652C30.2326 27.498 32.0868 26.73 34.0202 26.73H149.299C151.233 26.73 153.087 27.498 154.454 28.8652C155.821 30.2323 156.589 32.0866 156.589 34.02V82.5471C149.182 75.8765 140.03 71.4518 130.201 69.7898C120.373 68.1279 110.274 69.2974 101.086 73.1617C91.8974 77.026 83.9984 83.4255 78.3119 91.6124C72.6255 99.7993 69.3864 109.435 68.9732 119.395C68.56 129.354 70.9897 139.226 75.9785 147.855C80.9672 156.485 88.3089 163.517 97.1458 168.129C105.983 172.741 115.949 174.743 125.882 173.901C135.814 173.059 145.302 169.408 153.236 163.374L156.589 166.727V208.98Z" fill="white"/>
<path d="M121.578 169.235C147.898 169.235 169.235 147.898 169.235 121.578C169.235 95.2577 147.898 73.9209 121.578 73.9209C95.2575 73.9209 73.9207 95.2577 73.9207 121.578C73.9207 147.898 95.2575 169.235 121.578 169.235Z" fill="#0AE2FF"/>
<path d="M121.578 160.638C143.15 160.638 160.638 143.15 160.638 121.578C160.638 100.006 143.15 82.5181 121.578 82.5181C100.006 82.5181 82.5181 100.006 82.5181 121.578C82.5181 143.15 100.006 160.638 121.578 160.638Z" fill="#231F20"/>
<path d="M121.578 155.778C140.466 155.778 155.778 140.466 155.778 121.578C155.778 102.69 140.466 87.3779 121.578 87.3779C102.69 87.3779 87.3782 102.69 87.3782 121.578C87.3782 140.466 102.69 155.778 121.578 155.778Z" fill="white"/>
<path d="M172.885 169.614L169.619 172.88L156.983 160.244C158.12 159.199 159.204 158.115 160.249 156.978L172.885 169.614Z" fill="#C6B9C4"/>
<path d="M215.745 210.875L210.885 215.735C210.543 216.062 210.088 216.244 209.614 216.244C209.141 216.244 208.686 216.062 208.344 215.735L172.263 179.65C172.096 179.483 171.964 179.286 171.874 179.068C171.784 178.85 171.737 178.617 171.737 178.381C171.737 178.146 171.784 177.913 171.874 177.695C171.964 177.477 172.096 177.279 172.263 177.113L177.123 172.253C177.289 172.086 177.487 171.953 177.704 171.863C177.922 171.773 178.156 171.727 178.391 171.728C178.868 171.728 179.326 171.917 179.665 172.253L215.745 208.338C215.912 208.505 216.044 208.703 216.134 208.92C216.225 209.138 216.271 209.371 216.271 209.607C216.271 209.842 216.225 210.076 216.134 210.293C216.044 210.511 215.912 210.709 215.745 210.875Z" fill="#8D7F89"/>
<path d="M75.8162 83.9276L83.8498 75.8794C84.2637 75.4654 84.5142 74.9159 84.5552 74.3319C84.5963 73.748 84.4252 73.1688 84.0734 72.701L81.1817 68.8567L85.9396 68.186C86.5184 68.103 87.0479 67.814 87.4309 67.3721C87.8138 66.9302 88.0246 66.3651 88.0245 65.7803V54.3982C88.0246 53.8134 87.8138 53.2483 87.4309 52.8064C87.0479 52.3645 86.5184 52.0755 85.9396 51.9925L81.1622 51.3218L84.0539 47.4727C84.4044 47.0052 84.5747 46.4271 84.5337 45.8442C84.4926 45.2614 84.2429 44.7128 83.8304 44.2991L75.8162 36.2461C75.4019 35.8309 74.8515 35.5796 74.2664 35.5386C73.6813 35.4975 73.1012 35.6694 72.6329 36.0225L68.7984 38.9142L68.1326 34.1563C68.0511 33.5715 67.7596 33.0364 67.3124 32.651C66.8652 32.2655 66.2929 32.056 65.7026 32.0616H54.3642C53.7738 32.056 53.2016 32.2655 52.7544 32.651C52.3072 33.0364 52.0156 33.5715 51.9342 34.1563L51.2684 38.9142L47.4387 36.0274C46.971 35.6736 46.3911 35.5009 45.8061 35.5411C45.2211 35.5813 44.6703 35.8317 44.2554 36.2461L36.2412 44.2991C35.8287 44.7128 35.579 45.2614 35.5379 45.8442C35.4968 46.4271 35.6672 47.0052 36.0177 47.4727L38.9337 51.3218L34.1757 51.9925C33.596 52.0745 33.0654 52.363 32.6814 52.805C32.2975 53.247 32.086 53.8127 32.0859 54.3982V65.7803C32.086 66.3658 32.2975 66.9315 32.6814 67.3735C33.0654 67.8155 33.596 68.104 34.1757 68.186L38.9337 68.8567L36.0177 72.701C35.6658 73.1688 35.4947 73.748 35.5358 74.3319C35.5769 74.9159 35.8274 75.4654 36.2412 75.8794L44.2748 83.9276C44.6891 84.3427 45.2396 84.594 45.8246 84.6351C46.4097 84.6762 46.9899 84.5043 47.4581 84.1511L51.2878 81.2643L51.9536 86.0222C52.0361 86.6061 52.3282 87.14 52.7752 87.5245C53.2223 87.909 53.794 88.1178 54.3836 88.112H65.7414C66.3311 88.1178 66.9027 87.909 67.3498 87.5245C67.7969 87.14 68.0889 86.6061 68.1714 86.0222L68.8372 81.2594L72.6718 84.1754C73.1397 84.5149 73.7134 84.6764 74.2897 84.631C74.866 84.5856 75.4072 84.3361 75.8162 83.9276Z" fill="#231F20"/>
<path d="M68.4288 74.8926C68.0909 74.6332 67.6907 74.4672 67.2683 74.4113C66.846 74.3553 66.4164 74.4114 66.0225 74.5738C65.6287 74.7363 65.2845 74.9994 65.0244 75.3369C64.7644 75.6743 64.5976 76.0742 64.5408 76.4964L63.5688 83.2518H56.4732L55.5255 76.4964C55.468 76.0746 55.3007 75.6753 55.0404 75.3385C54.78 75.0017 54.4358 74.7391 54.042 74.5772C53.6483 74.4153 53.2189 74.3597 52.797 74.4159C52.375 74.4721 51.9751 74.6382 51.6375 74.8975L46.1992 78.9945L41.1691 73.9352L45.2661 68.4823C45.5194 68.1444 45.6803 67.7464 45.7329 67.3274C45.7855 66.9085 45.728 66.483 45.5662 66.093C45.4043 65.703 45.1435 65.3619 44.8097 65.1034C44.4758 64.8448 44.0804 64.6778 43.6623 64.6186L36.936 63.666V56.5073L43.6769 55.5353C44.0991 55.4785 44.499 55.3117 44.8364 55.0517C45.1739 54.7916 45.437 54.4474 45.5995 54.0536C45.7619 53.6597 45.818 53.2301 45.762 52.8077C45.7061 52.3854 45.5401 51.9852 45.2807 51.6473L41.1691 46.2381L46.2186 41.1788L51.657 45.2807C51.9946 45.54 52.3944 45.7061 52.8164 45.7623C53.2384 45.8185 53.6677 45.7628 54.0615 45.6009C54.4552 45.439 54.7995 45.1765 55.0598 44.8397C55.3202 44.5028 55.4875 44.1035 55.545 43.6817L56.4732 36.936H63.6126L64.5846 43.6963C64.6421 44.1181 64.8094 44.5174 65.0697 44.8543C65.3301 45.1911 65.6744 45.4536 66.0681 45.6155C66.4618 45.7774 66.8912 45.8331 67.3131 45.7769C67.7351 45.7207 68.135 45.5546 68.4726 45.2952L73.9158 41.1934L78.9653 46.2527L74.844 51.691C74.5847 52.0286 74.4186 52.4284 74.3624 52.8504C74.3062 53.2724 74.3618 53.7018 74.5238 54.0955C74.6857 54.4892 74.9482 54.8335 75.285 55.0938C75.6218 55.3542 76.0212 55.5215 76.443 55.579L83.1838 56.551V63.666L76.443 64.638C76.0212 64.6955 75.6218 64.8628 75.285 65.1232C74.9482 65.3835 74.6857 65.7278 74.5238 66.1215C74.3618 66.5153 74.3062 66.9446 74.3624 67.3666C74.4186 67.7886 74.5847 68.1884 74.844 68.526L78.941 73.979L73.872 78.9993L68.4288 74.8926Z" fill="#8D7F89"/>
<path d="M121.578 106.113C116.566 106.105 111.639 107.415 107.293 109.912C102.947 112.409 99.3337 116.004 96.8161 120.339C96.5937 120.714 96.4763 121.142 96.4763 121.578C96.4763 122.014 96.5937 122.442 96.8161 122.817C99.3424 127.142 102.958 130.73 107.301 133.223C111.645 135.716 116.567 137.028 121.575 137.028C126.584 137.028 131.505 135.716 135.849 133.223C140.193 130.73 143.808 127.142 146.335 122.817C146.557 122.442 146.674 122.014 146.674 121.578C146.674 121.142 146.557 120.714 146.335 120.339C143.817 116.005 140.205 112.41 135.86 109.913C131.515 107.416 126.589 106.106 121.578 106.113Z" fill="#231F20"/>
<path d="M121.578 131.881C119.539 131.881 117.546 131.277 115.85 130.144C114.155 129.011 112.834 127.401 112.054 125.517C111.274 123.633 111.07 121.56 111.468 119.56C111.866 117.561 112.849 115.724 114.291 114.283C115.733 112.841 117.57 111.86 119.57 111.463C121.57 111.065 123.642 111.27 125.526 112.051C127.409 112.832 129.019 114.154 130.151 115.85C131.283 117.546 131.887 119.539 131.886 121.578C131.882 124.31 130.795 126.929 128.862 128.861C126.93 130.792 124.31 131.879 121.578 131.881Z" fill="#5AA0BF"/>
<path d="M101.778 121.578C103.384 119.19 105.402 117.107 107.737 115.425C106.861 117.357 106.408 119.454 106.408 121.576C106.408 123.697 106.861 125.794 107.737 127.726C105.402 126.046 103.384 123.964 101.778 121.578Z" fill="white"/>
<path d="M135.414 127.726C136.292 125.794 136.746 123.697 136.746 121.576C136.746 119.454 136.292 117.357 135.414 115.425C137.749 117.107 139.767 119.19 141.373 121.578C139.766 123.963 137.748 126.045 135.414 127.726Z" fill="white"/>
<path d="M60.0404 72.2782C66.7722 72.2782 72.2293 66.821 72.2293 60.0893C72.2293 53.3575 66.7722 47.9004 60.0404 47.9004C53.3087 47.9004 47.8516 53.3575 47.8516 60.0893C47.8516 66.821 53.3087 72.2782 60.0404 72.2782Z" fill="#231F20"/>
<path d="M60.0406 67.418C64.0882 67.418 67.3694 64.1368 67.3694 60.0891C67.3694 56.0415 64.0882 52.7603 60.0406 52.7603C55.9929 52.7603 52.7117 56.0415 52.7117 60.0891C52.7117 64.1368 55.9929 67.418 60.0406 67.418Z" fill="white"/>
</svg>
