<svg width="58" height="58" viewBox="0 0 58 58" fill="none" xmlns="http://www.w3.org/2000/svg">
<mask id="mask0_12_104" style="mask-type:alpha" maskUnits="userSpaceOnUse" x="0" y="0" width="58" height="58">
<rect width="57.9915" height="57.9915" fill="#D9D9D9"/>
</mask>
<g mask="url(#mask0_12_104)">
<path d="M28.9957 38.6609C31.3718 38.6609 33.9391 38.2481 36.6977 37.4225C39.4563 36.5969 43.2721 35.1169 48.145 32.9825C48.2255 32.5396 48.2759 32.1066 48.296 31.6838C48.3161 31.2609 48.3262 30.828 48.3262 30.385C48.3262 29.942 48.1551 29.5796 47.8127 29.2977C47.4704 29.0158 47.0778 28.9352 46.6348 29.056C46.071 29.2574 45.4468 29.4688 44.7621 29.6903C44.0775 29.9118 43.2117 30.2441 42.1646 30.687C39.3859 31.8549 37.0098 32.6704 35.0365 33.1336C33.0632 33.5967 31.0496 33.8282 28.9957 33.8282C26.9016 33.8282 24.8477 33.5866 22.8341 33.1034C20.8205 32.6201 18.364 31.7945 15.4644 30.6266C14.4173 30.1836 13.6119 29.8615 13.0481 29.6601L11.3567 29.056C10.9137 28.8949 10.521 28.9654 10.1787 29.2675C9.83639 29.5695 9.66523 29.942 9.66523 30.385C9.66523 30.828 9.6753 31.2609 9.69544 31.6838C9.71557 32.1066 9.76591 32.5396 9.84646 32.9825C13.9139 34.9156 17.5283 36.3452 20.6897 37.2715C23.851 38.1977 26.6197 38.6609 28.9957 38.6609ZM28.9957 48.3261C32.7813 48.3261 36.144 47.5005 39.0838 45.8494C42.0237 44.1982 44.3192 41.9833 45.9703 39.2045C42.4264 40.6946 39.3053 41.7819 36.6071 42.4666C33.9089 43.1512 31.3718 43.4935 28.9957 43.4935C26.66 43.4935 24.0624 43.1411 21.2031 42.4364C18.3438 41.7316 15.263 40.6745 11.9607 39.2649C13.5716 42.0437 15.857 44.2486 18.817 45.8796C21.777 47.5106 25.1699 48.3261 28.9957 48.3261ZM28.9957 24.163C26.3378 24.163 24.0624 23.2166 22.1696 21.3238C20.2769 19.4311 19.3305 17.1557 19.3305 14.4978C19.3305 11.8398 20.2769 9.56446 22.1696 7.67168C24.0624 5.77891 26.3378 4.83252 28.9957 4.83252C31.6537 4.83252 33.929 5.77891 35.8218 7.67168C37.7146 9.56446 38.661 11.8398 38.661 14.4978C38.661 17.1557 37.7146 19.4311 35.8218 21.3238C33.929 23.2166 31.6537 24.163 28.9957 24.163ZM28.9957 19.3304C30.3247 19.3304 31.4624 18.8572 32.4088 17.9108C33.3551 16.9644 33.8283 15.8267 33.8283 14.4978C33.8283 13.1688 33.3551 12.0311 32.4088 11.0847C31.4624 10.1383 30.3247 9.66514 28.9957 9.66514C27.6667 9.66514 26.5291 10.1383 25.5827 11.0847C24.6363 12.0311 24.1631 13.1688 24.1631 14.4978C24.1631 15.8267 24.6363 16.9644 25.5827 17.9108C26.5291 18.8572 27.6667 19.3304 28.9957 19.3304ZM28.9957 53.1587C21.8676 53.1587 16.0584 51.0445 11.5681 46.8159C7.07777 42.5874 4.83261 37.1104 4.83261 30.385C4.83261 28.2909 5.66825 26.6196 7.33953 25.3712C9.01082 24.1227 10.8331 23.8207 12.8064 24.465C13.4508 24.6664 14.1253 24.898 14.8301 25.1597C15.5349 25.4215 16.3705 25.7537 17.337 26.1565C19.9144 27.2035 22.0488 27.9385 23.7402 28.3613C25.4317 28.7842 27.1835 28.9956 28.9957 28.9956C30.7274 28.9956 32.439 28.7943 34.1304 28.3916C35.8218 27.9888 37.8958 27.2639 40.3524 26.2169C41.5203 25.7739 42.4566 25.4114 43.1613 25.1295C43.8661 24.8476 44.5608 24.606 45.2454 24.4046C47.2187 23.8408 49.031 24.1831 50.6821 25.4316C52.3333 26.68 53.1588 28.3311 53.1588 30.385C53.1588 33.5665 52.5346 36.5365 51.2862 39.2952C50.0378 42.0538 48.3262 44.46 46.1515 46.5139C43.9768 48.5677 41.4196 50.1887 38.4797 51.3767C35.5399 52.5647 32.3786 53.1587 28.9957 53.1587Z" fill="#0B0F13"/>
</g>
</svg>
