<svg width="58" height="58" viewBox="0 0 58 58" fill="none" xmlns="http://www.w3.org/2000/svg">
<mask id="mask0_12_110" style="mask-type:alpha" maskUnits="userSpaceOnUse" x="0" y="0" width="58" height="58">
<rect width="57.9915" height="57.9915" fill="#D9D9D9"/>
</mask>
<g mask="url(#mask0_12_110)">
<path d="M20.7803 54.367L16.1893 46.6348L7.49057 44.7018L8.33628 35.7614L2.41632 28.9958L8.33628 22.2301L7.49057 13.2898L16.1893 11.3567L20.7803 3.62451L28.9957 7.12816L37.2112 3.62451L41.8022 11.3567L50.5009 13.2898L49.6552 22.2301L55.5752 28.9958L49.6552 35.7614L50.5009 44.7018L41.8022 46.6348L37.2112 54.367L28.9957 50.8634L20.7803 54.367ZM22.8341 48.2054L28.9957 45.5475L35.2781 48.2054L38.661 42.4063L45.3058 40.8357L44.7018 34.07L49.1719 28.9958L44.7018 23.8007L45.3058 17.035L38.661 15.5852L35.1573 9.7861L28.9957 12.444L22.7133 9.7861L19.3305 15.5852L12.6856 17.035L13.2897 23.8007L8.81954 28.9958L13.2897 34.07L12.6856 40.9565L19.3305 42.4063L22.8341 48.2054ZM26.4586 37.5737L40.1108 23.9215L36.7279 20.4179L26.4586 30.6872L21.2635 25.6129L17.8807 28.9958L26.4586 37.5737Z" fill="#0B0F13"/>
</g>
</svg>
