<svg width="58" height="58" viewBox="0 0 58 58" fill="none" xmlns="http://www.w3.org/2000/svg">
<mask id="mask0_12_98" style="mask-type:alpha" maskUnits="userSpaceOnUse" x="0" y="0" width="58" height="58">
<rect width="57.9915" height="57.9915" fill="#D9D9D9"/>
</mask>
<g mask="url(#mask0_12_98)">
<path d="M9.66524 50.7426V7.24902H14.4979V12.0816H19.3305V7.24902H38.661V12.0816H43.4936V7.24902H48.3262V50.7426H43.4936V45.91H38.661V50.7426H19.3305V45.91H14.4979V50.7426H9.66524ZM14.4979 41.0774H19.3305V36.2448H14.4979V41.0774ZM14.4979 31.4121H19.3305V26.5795H14.4979V31.4121ZM14.4979 21.7469H19.3305V16.9143H14.4979V21.7469ZM38.661 41.0774H43.4936V36.2448H38.661V41.0774ZM38.661 31.4121H43.4936V26.5795H38.661V31.4121ZM38.661 21.7469H43.4936V16.9143H38.661V21.7469ZM24.1631 45.91H33.8283V12.0816H24.1631V45.91Z" fill="#0B0F13"/>
</g>
</svg>
